P3
# CREATOR: GIMP PNM Filter Version 1.1
52 52
255
210
210
210
196
196
196
188
188
188
186
186
186
187
187
187
187
187
187
187
187
187
187
187
187
187
187
187
187
187
187
187
187
187
187
187
187
187
187
187
187
187
187
187
187
187
187
187
187
187
187
187
187
187
187
187
187
187
187
187
187
187
187
187
187
187
187
187
187
187
187
187
187
187
187
187
187
187
187
187
187
187
187
187
187
187
187
187
187
187
187
187
187
187
187
187
187
187
187
187
187
187
187
187
187
187
187
187
187
187
187
187
187
187
187
187
187
187
187
187
187
187
187
187
187
187
187
187
187
187
187
187
187
187
187
187
187
187
187
187
187
187
187
187
187
187
187
187
187
187
187
187
187
187
187
187
187
127
157
0
127
157
0
127
157
0
127
157
0
127
157
0
127
157
0
127
157
0
127
157
0
127
157
0
127
157
0
127
157
0
127
157
0
127
157
0
127
157
0
127
157
0
127
157
0
127
157
0
127
157
0
127
157
0
127
157
0
127
157
0
127
157
0
127
157
0
127
157
0
127
157
0
127
157
0
127
157
0
127
157
0
127
157
0
127
157
0
127
157
0
127
157
0
127
157
0
127
157
0
127
157
0
127
157
0
127
157
0
127
157
0
127
157
0
127
157
0
127
157
0
127
157
0
127
157
0
127
157
0
127
157
0
127
157
0
127
157
0
127
157
0
127
157
0
127
157
0
127
157
0
127
157
0
127
157
0
127
157
0
127
157
0
127
157
0
127
157
0
127
157
0
127
157
0
127
157
0
127
157
0
127
157
0
127
157
0
127
157
0
127
157
0
127
157
0
127
157
0
127
157
0
127
157
0
127
157
0
127
157
0
127
157
0
127
157
0
127
157
0
127
157
0
127
157
0
127
157
0
127
157
0
127
157
0
127
157
0
127
157
0
127
157
0
127
157
0
127
157
0
127
157
0
127
157
0
127
157
0
127
157
0
127
157
0
127
157
0
127
157
0
127
157
0
127
157
0
127
157
0
127
157
0
127
157
0
127
157
0
127
157
0
127
157
0
127
157
0
127
157
0
127
157
0
127
157
0
127
157
0
127
157
0
127
157
0
127
157
0
127
157
0
127
157
0
127
157
0
127
157
0
127
157
0
127
157
0
127
157
0
127
157
0
127
157
0
127
157
0
127
157
0
127
157
0
127
157
0
127
157
0
127
157
0
127
157
0
127
157
0
127
157
0
127
157
0
127
157
0
127
157
0
127
157
0
127
157
0
127
157
0
127
157
0
127
157
0
127
157
0
127
157
0
127
157
0
127
157
0
127
157
0
127
157
0
127
157
0
127
157
0
127
157
0
127
157
0
127
157
0
127
157
0
127
157
0
127
157
0
127
157
0
127
157
0
127
157
0
127
157
0
127
157
0
127
157
0
127
157
0
127
157
0
127
157
0
127
157
0
127
157
0
127
157
0
127
157
0
127
157
0
127
157
0
127
157
0
127
157
0
127
157
0
127
157
0
127
157
0
127
157
0
127
157
0
127
157
0
127
157
0
127
157
0
127
157
0
127
157
0
127
157
0
127
157
0
127
157
0
127
157
0
127
157
0
127
157
0
127
157
0
127
157
0
127
157
0
127
157
0
127
157
0
127
157
0
127
157
0
127
157
0
127
157
0
127
157
0
127
157
0
127
157
0
127
157
0
127
157
0
127
157
0
127
157
0
127
157
0
127
157
0
127
157
0
127
157
0
127
157
0
127
157
0
127
157
0
127
157
0
127
157
0
127
157
0
127
157
0
127
157
0
127
157
0
127
157
0
127
157
0
127
157
0
127
157
0
127
157
0
127
157
0
127
157
0
127
157
0
127
157
0
127
157
0
127
157
0
127
157
0
127
157
0
127
157
0
127
157
0
127
157
0
127
157
0
127
157
0
127
157
0
127
157
0
127
157
0
127
157
0
127
157
0
127
157
0
127
157
0
127
157
0
127
157
0
127
157
0
127
157
0
127
157
0
127
157
0
127
157
0
127
157
0
127
157
0
127
157
0
127
157
0
127
157
0
127
157
0
127
157
0
127
157
0
127
157
0
127
157
0
127
157
0
127
157
0
127
157
0
127
157
0
127
157
0
127
157
0
127
157
0
127
157
0
127
157
0
127
157
0
127
157
0
127
157
0
127
157
0
127
157
0
127
157
0
127
157
0
127
157
0
127
157
0
127
157
0
127
157
0
127
157
0
127
157
0
127
157
0
127
157
0
127
157
0
127
157
0
127
157
0
127
157
0
127
157
0
127
157
0
127
157
0
127
157
0
127
157
0
127
157
0
127
157
0
127
157
0
127
157
0
127
157
0
127
157
0
127
157
0
127
157
0
127
157
0
127
157
0
127
157
0
127
157
0
127
157
0
127
157
0
127
157
0
127
157
0
127
157
0
127
157
0
127
157
0
127
157
0
127
157
0
127
157
0
127
157
0
127
157
0
127
157
0
127
157
0
127
157
0
127
157
0
127
157
0
127
157
0
127
157
0
127
157
0
127
157
0
127
157
0
127
157
0
127
157
0
127
157
0
127
157
0
127
157
0
127
157
0
127
157
0
127
157
0
127
157
0
127
157
0
127
157
0
127
157
0
127
157
0
127
157
0
127
157
0
127
157
0
127
157
0
127
157
0
127
157
0
127
157
0
127
157
0
127
157
0
127
157
0
127
157
0
127
157
0
127
157
0
127
157
0
127
157
0
127
157
0
127
157
0
127
157
0
127
157
0
127
157
0
127
157
0
127
157
0
127
157
0
127
157
0
127
157
0
127
157
0
127
157
0
127
157
0
127
157
0
127
157
0
127
157
0
127
157
0
127
157
0
127
157
0
127
157
0
127
157
0
127
157
0
127
157
0
127
157
0
127
157
0
127
157
0
127
157
0
127
157
0
127
157
0
127
157
0
127
157
0
127
157
0
127
157
0
127
157
0
127
157
0
127
157
0
127
157
0
127
157
0
127
157
0
127
157
0
127
157
0
127
157
0
127
157
0
127
157
0
127
157
0
127
157
0
127
157
0
127
157
0
127
157
0
127
157
0
127
157
0
127
157
0
127
157
0
127
157
0
127
157
0
127
157
0
127
157
0
127
157
0
127
157
0
127
157
0
127
157
0
127
157
0
127
157
0
127
157
0
127
157
0
127
157
0
127
157
0
127
157
0
127
157
0
127
157
0
127
157
0
127
157
0
127
157
0
127
157
0
127
157
0
127
157
0
127
157
0
127
157
0
127
157
0
127
157
0
127
157
0
127
157
0
127
157
0
127
157
0
127
157
0
127
157
0
127
157
0
127
157
0
127
157
0
127
157
0
127
157
0
127
157
0
127
157
0
127
157
0
127
157
0
127
157
0
127
157
0
127
157
0
127
157
0
127
157
0
127
157
0
127
157
0
127
157
0
127
157
0
127
157
0
127
157
0
127
157
0
127
157
0
127
157
0
127
157
0
127
157
0
127
157
0
127
157
0
127
157
0
127
157
0
127
157
0
127
157
0
127
157
0
127
157
0
127
157
0
127
157
0
127
157
0
127
157
0
127
157
0
127
157
0
127
157
0
127
157
0
127
157
0
127
157
0
127
157
0
127
157
0
127
157
0
127
157
0
127
157
0
127
157
0
127
157
0
127
157
0
127
157
0
127
157
0
127
157
0
127
157
0
127
157
0
127
157
0
127
157
0
127
157
0
127
157
0
127
157
0
127
157
0
127
157
0
127
157
0
127
157
0
127
157
0
127
157
0
127
157
0
127
157
0
127
157
0
127
157
0
127
157
0
127
157
0
127
157
0
127
157
0
127
157
0
127
157
0
127
157
0
127
157
0
127
157
0
127
157
0
127
157
0
127
157
0
127
157
0
127
157
0
127
157
0
127
157
0
127
157
0
127
157
0
127
157
0
127
157
0
127
157
0
127
157
0
127
157
0
127
157
0
127
157
0
127
157
0
127
157
0
127
157
0
127
157
0
127
157
0
127
157
0
127
157
0
127
157
0
127
157
0
127
157
0
127
157
0
127
157
0
127
157
0
127
157
0
127
157
0
127
157
0
127
157
0
127
157
0
127
157
0
127
157
0
127
157
0
127
157
0
127
157
0
127
157
0
127
157
0
127
157
0
127
157
0
127
157
0
127
157
0
127
157
0
127
157
0
127
157
0
127
157
0
127
157
0
127
157
0
127
157
0
127
157
0
127
157
0
127
157
0
127
157
0
127
157
0
127
157
0
127
157
0
127
157
0
127
157
0
127
157
0
127
157
0
127
157
0
127
157
0
127
157
0
127
157
0
127
157
0
127
157
0
127
157
0
127
157
0
127
157
0
127
157
0
127
157
0
127
157
0
127
157
0
127
157
0
127
157
0
127
157
0
127
157
0
127
157
0
127
157
0
127
157
0
127
157
0
127
157
0
127
157
0
127
157
0
127
157
0
127
157
0
127
157
0
127
157
0
127
157
0
127
157
0
127
157
0
127
157
0
127
157
0
127
157
0
127
157
0
127
157
0
127
157
0
127
157
0
127
157
0
127
157
0
127
157
0
127
157
0
127
157
0
127
157
0
127
157
0
127
157
0
127
157
0
127
157
0
127
157
0
127
157
0
127
157
0
127
157
0
127
157
0
127
157
0
127
157
0
127
157
0
127
157
0
127
157
0
127
157
0
127
157
0
127
157
0
127
157
0
127
157
0
127
157
0
127
157
0
127
157
0
127
157
0
127
157
0
127
157
0
127
157
0
127
157
0
127
157
0
127
157
0
127
157
0
127
157
0
127
157
0
127
157
0
127
157
0
127
157
0
127
157
0
127
157
0
127
157
0
127
157
0
127
157
0
127
157
0
127
157
0
127
157
0
127
157
0
127
157
0
127
157
0
127
157
0
127
157
0
127
157
0
127
157
0
127
157
0
127
157
0
127
157
0
127
157
0
127
157
0
127
157
0
127
157
0
127
157
0
127
157
0
127
157
0
127
157
0
127
157
0
127
157
0
127
157
0
127
157
0
127
157
0
127
157
0
127
157
0
127
157
0
127
157
0
127
157
0
127
157
0
127
157
0
127
157
0
127
157
0
127
157
0
127
157
0
127
157
0
127
157
0
127
157
0
127
157
0
127
157
0
127
157
0
127
157
0
127
157
0
127
157
0
127
157
0
127
157
0
127
157
0
127
157
0
127
157
0
127
157
0
127
157
0
127
157
0
127
157
0
127
157
0
127
157
0
127
157
0
127
157
0
127
157
0
127
157
0
127
157
0
127
157
0
127
157
0
127
157
0
127
157
0
127
157
0
127
157
0
127
157
0
127
157
0
127
157
0
127
157
0
127
157
0
127
157
0
127
157
0
127
157
0
127
157
0
127
157
0
127
157
0
127
157
0
127
157
0
127
157
0
127
157
0
127
157
0
127
157
0
127
157
0
127
157
0
127
157
0
127
157
0
127
157
0
127
157
0
127
157
0
127
157
0
127
157
0
127
157
0
127
157
0
127
157
0
127
157
0
127
157
0
127
157
0
127
157
0
127
157
0
127
157
0
127
157
0
127
157
0
127
157
0
127
157
0
127
157
0
127
157
0
127
157
0
127
157
0
127
157
0
127
157
0
127
157
0
127
157
0
127
157
0
127
157
0
127
157
0
127
157
0
127
157
0
127
157
0
127
157
0
127
157
0
127
157
0
127
157
0
127
157
0
127
157
0
127
157
0
127
157
0
127
157
0
127
157
0
127
157
0
127
157
0
127
157
0
127
157
0
127
157
0
127
157
0
127
157
0
127
157
0
127
157
0
127
157
0
127
157
0
127
157
0
127
157
0
127
157
0
127
157
0
127
157
0
127
157
0
127
157
0
127
157
0
127
157
0
127
157
0
127
157
0
127
157
0
127
157
0
127
157
0
127
157
0
127
157
0
127
157
0
127
157
0
127
157
0
127
157
0
127
157
0
127
157
0
127
157
0
127
157
0
127
157
0
127
157
0
127
157
0
127
157
0
127
157
0
127
157
0
127
157
0
127
157
0
127
157
0
127
157
0
127
157
0
127
157
0
127
157
0
127
157
0
127
157
0
127
157
0
127
157
0
127
157
0
127
157
0
127
157
0
127
157
0
127
157
0
127
157
0
127
157
0
127
157
0
127
157
0
127
157
0
127
157
0
127
157
0
127
157
0
127
157
0
127
157
0
127
157
0
127
157
0
127
157
0
127
157
0
127
157
0
127
157
0
127
157
0
127
157
0
127
157
0
127
157
0
127
157
0
127
157
0
127
157
0
127
157
0
127
157
0
127
157
0
127
157
0
127
157
0
127
157
0
127
157
0
127
157
0
127
157
0
127
157
0
127
157
0
127
157
0
127
157
0
127
157
0
127
157
0
127
157
0
127
157
0
127
157
0
127
157
0
127
157
0
127
157
0
127
157
0
127
157
0
127
157
0
127
157
0
127
157
0
127
157
0
127
157
0
127
157
0
127
157
0
127
157
0
127
157
0
127
157
0
127
157
0
127
157
0
127
157
0
127
157
0
127
157
0
127
157
0
127
157
0
127
157
0
127
157
0
127
157
0
127
157
0
127
157
0
127
157
0
127
157
0
127
157
0
127
157
0
127
157
0
127
157
0
127
157
0
127
157
0
127
157
0
127
157
0
127
157
0
127
157
0
127
157
0
127
157
0
127
157
0
127
157
0
127
157
0
127
157
0
127
157
0
127
157
0
127
157
0
127
157
0
127
157
0
127
157
0
127
157
0
127
157
0
127
157
0
127
157
0
127
157
0
127
157
0
127
157
0
127
157
0
127
157
0
127
157
0
127
157
0
127
157
0
127
157
0
127
157
0
127
157
0
127
157
0
127
157
0
127
157
0
127
157
0
127
157
0
127
157
0
127
157
0
127
157
0
127
157
0
127
157
0
127
157
0
127
157
0
127
157
0
127
157
0
127
157
0
127
157
0
127
157
0
127
157
0
127
157
0
127
157
0
127
157
0
127
157
0
127
157
0
127
157
0
127
157
0
127
157
0
127
157
0
127
157
0
127
157
0
127
157
0
127
157
0
127
157
0
127
157
0
127
157
0
127
157
0
127
157
0
127
157
0
127
157
0
127
157
0
127
157
0
127
157
0
127
157
0
127
157
0
127
157
0
127
157
0
127
157
0
127
157
0
127
157
0
127
157
0
127
157
0
127
157
0
127
157
0
127
157
0
127
157
0
127
157
0
127
157
0
127
157
0
127
157
0
127
157
0
127
157
0
127
157
0
127
157
0
127
157
0
127
157
0
127
157
0
127
157
0
127
157
0
127
157
0
127
157
0
127
157
0
127
157
0
127
157
0
127
157
0
127
157
0
127
157
0
127
157
0
127
157
0
127
157
0
127
157
0
127
157
0
127
157
0
127
157
0
127
157
0
127
157
0
127
157
0
127
157
0
127
157
0
127
157
0
127
157
0
127
157
0
127
157
0
127
157
0
127
157
0
127
157
0
127
157
0
127
157
0
127
157
0
127
157
0
127
157
0
127
157
0
127
157
0
127
157
0
127
157
0
127
157
0
127
157
0
127
157
0
127
157
0
127
157
0
127
157
0
127
157
0
127
157
0
127
157
0
127
157
0
127
157
0
127
157
0
127
157
0
127
157
0
127
157
0
127
157
0
127
157
0
127
157
0
127
157
0
127
157
0
127
157
0
127
157
0
127
157
0
127
157
0
127
157
0
127
157
0
127
157
0
127
157
0
127
157
0
127
157
0
127
157
0
127
157
0
127
157
0
127
157
0
127
157
0
127
157
0
127
157
0
127
157
0
127
157
0
127
157
0
127
157
0
127
157
0
127
157
0
127
157
0
127
157
0
127
157
0
127
157
0
127
157
0
127
157
0
127
157
0
127
157
0
127
157
0
127
157
0
127
157
0
127
157
0
127
157
0
127
157
0
127
157
0
127
157
0
127
157
0
127
157
0
127
157
0
127
157
0
127
157
0
127
157
0
127
157
0
127
157
0
127
157
0
127
157
0
127
157
0
127
157
0
127
157
0
127
157
0
127
157
0
127
157
0
127
157
0
127
157
0
127
157
0
127
157
0
127
157
0
127
157
0
127
157
0
127
157
0
127
157
0
127
157
0
127
157
0
127
157
0
127
157
0
127
157
0
127
157
0
127
157
0
127
157
0
127
157
0
127
157
0
127
157
0
127
157
0
127
157
0
127
157
0
127
157
0
127
157
0
127
157
0
127
157
0
127
157
0
127
157
0
127
157
0
127
157
0
127
157
0
127
157
0
127
157
0
127
157
0
127
157
0
127
157
0
127
157
0
127
157
0
127
157
0
127
157
0
127
157
0
127
157
0
127
157
0
127
157
0
127
157
0
127
157
0
127
157
0
127
157
0
127
157
0
127
157
0
127
157
0
127
157
0
127
157
0
127
157
0
127
157
0
127
157
0
127
157
0
127
157
0
127
157
0
127
157
0
127
157
0
127
157
0
127
157
0
127
157
0
127
157
0
127
157
0
127
157
0
127
157
0
127
157
0
127
157
0
127
157
0
127
157
0
127
157
0
127
157
0
127
157
0
127
157
0
127
157
0
127
157
0
127
157
0
127
157
0
127
157
0
127
157
0
127
157
0
127
157
0
127
157
0
127
157
0
127
157
0
127
157
0
127
157
0
127
157
0
127
157
0
127
157
0
127
157
0
127
157
0
127
157
0
127
157
0
127
157
0
127
157
0
127
157
0
127
157
0
127
157
0
127
157
0
127
157
0
127
157
0
127
157
0
127
157
0
127
157
0
127
157
0
127
157
0
127
157
0
127
157
0
127
157
0
127
157
0
127
157
0
127
157
0
127
157
0
127
157
0
127
157
0
127
157
0
127
157
0
127
157
0
127
157
0
127
157
0
127
157
0
127
157
0
127
157
0
127
157
0
127
157
0
127
157
0
127
157
0
127
157
0
127
157
0
127
157
0
127
157
0
127
157
0
127
157
0
127
157
0
127
157
0
127
157
0
127
157
0
127
157
0
127
157
0
127
157
0
127
157
0
127
157
0
127
157
0
127
157
0
127
157
0
127
157
0
127
157
0
127
157
0
127
157
0
127
157
0
127
157
0
127
157
0
127
157
0
127
157
0
127
157
0
127
157
0
127
157
0
127
157
0
127
157
0
127
157
0
127
157
0
127
157
0
127
157
0
127
157
0
127
157
0
127
157
0
127
157
0
127
157
0
127
157
0
127
157
0
127
157
0
127
157
0
127
157
0
127
157
0
127
157
0
127
157
0
127
157
0
127
157
0
127
157
0
127
157
0
127
157
0
127
157
0
127
157
0
127
157
0
127
157
0
127
157
0
127
157
0
127
157
0
127
157
0
127
157
0
127
157
0
127
157
0
127
157
0
127
157
0
127
157
0
127
157
0
127
157
0
127
157
0
127
157
0
127
157
0
127
157
0
127
157
0
127
157
0
127
157
0
127
157
0
127
157
0
127
157
0
127
157
0
127
157
0
127
157
0
127
157
0
127
157
0
127
157
0
127
157
0
127
157
0
127
157
0
236
113
163
236
113
163
236
113
163
236
113
163
236
113
163
236
113
163
236
113
163
236
113
163
236
113
163
236
113
163
236
113
163
236
113
163
236
113
163
236
113
163
236
113
163
236
113
163
236
113
163
236
113
163
236
113
163
236
113
163
236
113
163
236
113
163
236
113
163
236
113
163
236
113
163
236
113
163
244
247
0
244
247
0
244
247
0
244
247
0
244
247
0
244
247
0
244
247
0
244
247
0
244
247
0
244
247
0
244
247
0
244
247
0
244
247
0
244
247
0
244
247
0
244
247
0
244
247
0
244
247
0
244
247
0
244
247
0
244
247
0
244
247
0
244
247
0
244
247
0
244
247
0
244
247
0
236
113
163
236
113
163
236
113
163
236
113
163
236
113
163
236
113
163
236
113
163
236
113
163
236
113
163
236
113
163
236
113
163
236
113
163
236
113
163
236
113
163
236
113
163
236
113
163
236
113
163
236
113
163
236
113
163
236
113
163
236
113
163
236
113
163
236
113
163
236
113
163
236
113
163
236
113
163
244
247
0
244
247
0
244
247
0
244
247
0
244
247
0
244
247
0
244
247
0
244
247
0
244
247
0
244
247
0
244
247
0
244
247
0
244
247
0
244
247
0
244
247
0
244
247
0
244
247
0
244
247
0
244
247
0
244
247
0
244
247
0
244
247
0
244
247
0
244
247
0
244
247
0
244
247
0
236
113
163
236
113
163
236
113
163
236
113
163
236
113
163
236
113
163
236
113
163
236
113
163
236
113
163
236
113
163
236
113
163
236
113
163
236
113
163
236
113
163
236
113
163
236
113
163
236
113
163
236
113
163
236
113
163
236
113
163
236
113
163
236
113
163
236
113
163
236
113
163
236
113
163
236
113
163
244
247
0
244
247
0
244
247
0
244
247
0
244
247
0
244
247
0
244
247
0
244
247
0
244
247
0
244
247
0
244
247
0
244
247
0
244
247
0
244
247
0
244
247
0
244
247
0
244
247
0
244
247
0
244
247
0
244
247
0
244
247
0
244
247
0
244
247
0
244
247
0
244
247
0
244
247
0
236
113
163
236
113
163
236
113
163
236
113
163
236
113
163
236
113
163
236
113
163
236
113
163
236
113
163
236
113
163
236
113
163
236
113
163
236
113
163
236
113
163
236
113
163
236
113
163
236
113
163
236
113
163
236
113
163
236
113
163
236
113
163
236
113
163
236
113
163
236
113
163
236
113
163
236
113
163
244
247
0
244
247
0
244
247
0
244
247
0
244
247
0
244
247
0
244
247
0
244
247
0
244
247
0
244
247
0
244
247
0
244
247
0
244
247
0
244
247
0
244
247
0
244
247
0
244
247
0
244
247
0
244
247
0
244
247
0
244
247
0
244
247
0
244
247
0
244
247
0
244
247
0
244
247
0
236
113
163
236
113
163
236
113
163
236
113
163
236
113
163
236
113
163
236
113
163
236
113
163
236
113
163
236
113
163
236
113
163
236
113
163
236
113
163
236
113
163
236
113
163
236
113
163
236
113
163
236
113
163
236
113
163
236
113
163
236
113
163
236
113
163
236
113
163
236
113
163
236
113
163
236
113
163
244
247
0
244
247
0
244
247
0
244
247
0
244
247
0
244
247
0
244
247
0
244
247
0
244
247
0
244
247
0
244
247
0
244
247
0
244
247
0
244
247
0
244
247
0
244
247
0
244
247
0
244
247
0
244
247
0
244
247
0
244
247
0
244
247
0
244
247
0
244
247
0
244
247
0
244
247
0
236
113
163
236
113
163
236
113
163
236
113
163
236
113
163
236
113
163
236
113
163
236
113
163
236
113
163
236
113
163
236
113
163
236
113
163
236
113
163
236
113
163
236
113
163
236
113
163
236
113
163
236
113
163
236
113
163
236
113
163
236
113
163
236
113
163
236
113
163
236
113
163
236
113
163
236
113
163
244
247
0
244
247
0
244
247
0
244
247
0
244
247
0
244
247
0
244
247
0
244
247
0
244
247
0
244
247
0
244
247
0
244
247
0
244
247
0
244
247
0
244
247
0
244
247
0
244
247
0
244
247
0
244
247
0
244
247
0
244
247
0
244
247
0
244
247
0
244
247
0
244
247
0
244
247
0
236
113
163
236
113
163
236
113
163
236
113
163
236
113
163
236
113
163
236
113
163
236
113
163
236
113
163
236
113
163
236
113
163
236
113
163
236
113
163
236
113
163
236
113
163
236
113
163
236
113
163
236
113
163
236
113
163
236
113
163
236
113
163
236
113
163
236
113
163
236
113
163
236
113
163
236
113
163
244
247
0
244
247
0
244
247
0
244
247
0
244
247
0
244
247
0
244
247
0
244
247
0
244
247
0
244
247
0
244
247
0
244
247
0
244
247
0
244
247
0
244
247
0
244
247
0
244
247
0
244
247
0
244
247
0
244
247
0
244
247
0
244
247
0
244
247
0
244
247
0
244
247
0
244
247
0
236
113
163
236
113
163
236
113
163
236
113
163
236
113
163
236
113
163
236
113
163
236
113
163
236
113
163
236
113
163
236
113
163
236
113
163
236
113
163
236
113
163
236
113
163
236
113
163
236
113
163
236
113
163
236
113
163
236
113
163
236
113
163
236
113
163
236
113
163
236
113
163
236
113
163
236
113
163
244
247
0
244
247
0
244
247
0
244
247
0
244
247
0
244
247
0
244
247
0
244
247
0
244
247
0
244
247
0
244
247
0
244
247
0
244
247
0
244
247
0
244
247
0
244
247
0
244
247
0
244
247
0
244
247
0
244
247
0
244
247
0
244
247
0
244
247
0
244
247
0
244
247
0
244
247
0
236
113
163
236
113
163
236
113
163
236
113
163
236
113
163
236
113
163
236
113
163
236
113
163
236
113
163
236
113
163
236
113
163
236
113
163
236
113
163
236
113
163
236
113
163
236
113
163
236
113
163
236
113
163
236
113
163
236
113
163
236
113
163
236
113
163
236
113
163
236
113
163
236
113
163
236
113
163
244
247
0
244
247
0
244
247
0
244
247
0
244
247
0
244
247
0
244
247
0
244
247
0
244
247
0
244
247
0
244
247
0
244
247
0
244
247
0
244
247
0
244
247
0
244
247
0
244
247
0
244
247
0
244
247
0
244
247
0
244
247
0
244
247
0
244
247
0
244
247
0
244
247
0
244
247
0
236
113
163
236
113
163
236
113
163
236
113
163
236
113
163
236
113
163
236
113
163
236
113
163
236
113
163
236
113
163
236
113
163
236
113
163
236
113
163
236
113
163
236
113
163
236
113
163
236
113
163
236
113
163
236
113
163
236
113
163
236
113
163
236
113
163
236
113
163
236
113
163
236
113
163
236
113
163
244
247
0
244
247
0
244
247
0
244
247
0
244
247
0
244
247
0
244
247
0
244
247
0
244
247
0
244
247
0
244
247
0
244
247
0
244
247
0
244
247
0
244
247
0
244
247
0
244
247
0
244
247
0
244
247
0
244
247
0
244
247
0
244
247
0
244
247
0
244
247
0
244
247
0
244
247
0
236
113
163
236
113
163
236
113
163
236
113
163
236
113
163
236
113
163
236
113
163
236
113
163
236
113
163
236
113
163
236
113
163
236
113
163
236
113
163
236
113
163
236
113
163
236
113
163
236
113
163
236
113
163
236
113
163
236
113
163
236
113
163
236
113
163
236
113
163
236
113
163
236
113
163
236
113
163
244
247
0
244
247
0
244
247
0
244
247
0
244
247
0
244
247
0
244
247
0
244
247
0
244
247
0
244
247
0
244
247
0
244
247
0
244
247
0
244
247
0
244
247
0
244
247
0
244
247
0
244
247
0
244
247
0
244
247
0
244
247
0
244
247
0
244
247
0
244
247
0
244
247
0
244
247
0
236
113
163
236
113
163
236
113
163
236
113
163
236
113
163
236
113
163
236
113
163
236
113
163
236
113
163
236
113
163
236
113
163
236
113
163
236
113
163
236
113
163
236
113
163
236
113
163
236
113
163
236
113
163
236
113
163
236
113
163
236
113
163
236
113
163
236
113
163
236
113
163
236
113
163
236
113
163
244
247
0
244
247
0
244
247
0
244
247
0
244
247
0
244
247
0
244
247
0
244
247
0
244
247
0
244
247
0
244
247
0
244
247
0
244
247
0
244
247
0
244
247
0
244
247
0
244
247
0
244
247
0
244
247
0
244
247
0
244
247
0
244
247
0
244
247
0
244
247
0
244
247
0
244
247
0
236
113
163
236
113
163
236
113
163
236
113
163
236
113
163
236
113
163
236
113
163
236
113
163
236
113
163
236
113
163
236
113
163
236
113
163
236
113
163
236
113
163
236
113
163
236
113
163
236
113
163
236
113
163
236
113
163
236
113
163
236
113
163
236
113
163
236
113
163
236
113
163
236
113
163
236
113
163
244
247
0
244
247
0
244
247
0
244
247
0
244
247
0
244
247
0
244
247
0
244
247
0
244
247
0
244
247
0
244
247
0
244
247
0
244
247
0
244
247
0
244
247
0
244
247
0
244
247
0
244
247
0
244
247
0
244
247
0
244
247
0
244
247
0
244
247
0
244
247
0
244
247
0
244
247
0
236
113
163
236
113
163
236
113
163
236
113
163
236
113
163
236
113
163
236
113
163
236
113
163
236
113
163
236
113
163
236
113
163
236
113
163
236
113
163
236
113
163
236
113
163
236
113
163
236
113
163
236
113
163
236
113
163
236
113
163
236
113
163
236
113
163
236
113
163
236
113
163
236
113
163
236
113
163
244
247
0
244
247
0
244
247
0
244
247
0
244
247
0
244
247
0
244
247
0
244
247
0
244
247
0
244
247
0
244
247
0
244
247
0
244
247
0
244
247
0
244
247
0
244
247
0
244
247
0
244
247
0
244
247
0
244
247
0
244
247
0
244
247
0
244
247
0
244
247
0
244
247
0
244
247
0
236
113
163
236
113
163
236
113
163
236
113
163
236
113
163
236
113
163
236
113
163
236
113
163
236
113
163
236
113
163
236
113
163
236
113
163
236
113
163
236
113
163
236
113
163
236
113
163
236
113
163
236
113
163
236
113
163
236
113
163
236
113
163
236
113
163
236
113
163
236
113
163
236
113
163
236
113
163
244
247
0
244
247
0
244
247
0
244
247
0
244
247
0
244
247
0
244
247
0
244
247
0
244
247
0
244
247
0
244
247
0
244
247
0
244
247
0
244
247
0
244
247
0
244
247
0
244
247
0
244
247
0
244
247
0
244
247
0
244
247
0
244
247
0
244
247
0
244
247
0
244
247
0
244
247
0
236
113
163
236
113
163
236
113
163
236
113
163
236
113
163
236
113
163
236
113
163
236
113
163
236
113
163
236
113
163
236
113
163
236
113
163
236
113
163
236
113
163
236
113
163
236
113
163
236
113
163
236
113
163
236
113
163
236
113
163
236
113
163
236
113
163
236
113
163
236
113
163
236
113
163
236
113
163
244
247
0
244
247
0
244
247
0
244
247
0
244
247
0
244
247
0
244
247
0
244
247
0
244
247
0
244
247
0
244
247
0
244
247
0
244
247
0
244
247
0
244
247
0
244
247
0
244
247
0
244
247
0
244
247
0
244
247
0
244
247
0
244
247
0
244
247
0
244
247
0
244
247
0
244
247
0
236
113
163
236
113
163
236
113
163
236
113
163
236
113
163
236
113
163
236
113
163
236
113
163
236
113
163
236
113
163
236
113
163
236
113
163
236
113
163
236
113
163
236
113
163
236
113
163
236
113
163
236
113
163
236
113
163
236
113
163
236
113
163
236
113
163
236
113
163
236
113
163
236
113
163
236
113
163
244
247
0
244
247
0
244
247
0
244
247
0
244
247
0
244
247
0
244
247
0
244
247
0
244
247
0
244
247
0
244
247
0
244
247
0
244
247
0
244
247
0
244
247
0
244
247
0
244
247
0
244
247
0
244
247
0
244
247
0
244
247
0
244
247
0
244
247
0
244
247
0
244
247
0
244
247
0
236
113
163
236
113
163
236
113
163
236
113
163
236
113
163
236
113
163
236
113
163
236
113
163
236
113
163
236
113
163
236
113
163
236
113
163
236
113
163
236
113
163
236
113
163
236
113
163
236
113
163
236
113
163
236
113
163
236
113
163
236
113
163
236
113
163
236
113
163
236
113
163
236
113
163
236
113
163
244
247
0
244
247
0
244
247
0
244
247
0
244
247
0
244
247
0
244
247
0
244
247
0
244
247
0
244
247
0
244
247
0
244
247
0
244
247
0
244
247
0
244
247
0
244
247
0
244
247
0
244
247
0
244
247
0
244
247
0
244
247
0
244
247
0
244
247
0
244
247
0
244
247
0
244
247
0
236
113
163
236
113
163
236
113
163
236
113
163
236
113
163
236
113
163
236
113
163
236
113
163
236
113
163
236
113
163
236
113
163
236
113
163
236
113
163
236
113
163
236
113
163
236
113
163
236
113
163
236
113
163
236
113
163
236
113
163
236
113
163
236
113
163
236
113
163
236
113
163
236
113
163
236
113
163
244
247
0
244
247
0
244
247
0
244
247
0
244
247
0
244
247
0
244
247
0
244
247
0
244
247
0
244
247
0
244
247
0
244
247
0
244
247
0
244
247
0
244
247
0
244
247
0
244
247
0
244
247
0
244
247
0
244
247
0
244
247
0
244
247
0
244
247
0
244
247
0
244
247
0
244
247
0
236
113
163
236
113
163
236
113
163
236
113
163
236
113
163
236
113
163
236
113
163
236
113
163
236
113
163
236
113
163
236
113
163
236
113
163
236
113
163
236
113
163
236
113
163
236
113
163
236
113
163
236
113
163
236
113
163
236
113
163
236
113
163
236
113
163
236
113
163
236
113
163
236
113
163
236
113
163
244
247
0
244
247
0
244
247
0
244
247
0
244
247
0
244
247
0
244
247
0
244
247
0
244
247
0
244
247
0
244
247
0
244
247
0
244
247
0
244
247
0
244
247
0
244
247
0
244
247
0
244
247
0
244
247
0
244
247
0
244
247
0
244
247
0
244
247
0
244
247
0
244
247
0
244
247
0
236
113
163
236
113
163
236
113
163
236
113
163
236
113
163
236
113
163
236
113
163
236
113
163
236
113
163
236
113
163
236
113
163
236
113
163
236
113
163
236
113
163
236
113
163
236
113
163
236
113
163
236
113
163
236
113
163
236
113
163
236
113
163
236
113
163
236
113
163
236
113
163
236
113
163
236
113
163
244
247
0
244
247
0
244
247
0
244
247
0
244
247
0
244
247
0
244
247
0
244
247
0
244
247
0
244
247
0
244
247
0
244
247
0
244
247
0
244
247
0
244
247
0
244
247
0
244
247
0
244
247
0
244
247
0
244
247
0
244
247
0
244
247
0
244
247
0
244
247
0
244
247
0
244
247
0
236
113
163
236
113
163
236
113
163
236
113
163
236
113
163
236
113
163
236
113
163
236
113
163
236
113
163
236
113
163
236
113
163
236
113
163
236
113
163
236
113
163
236
113
163
236
113
163
236
113
163
236
113
163
236
113
163
236
113
163
236
113
163
236
113
163
236
113
163
236
113
163
236
113
163
236
113
163
244
247
0
244
247
0
244
247
0
244
247
0
244
247
0
244
247
0
244
247
0
244
247
0
244
247
0
244
247
0
244
247
0
244
247
0
244
247
0
244
247
0
244
247
0
244
247
0
244
247
0
244
247
0
244
247
0
244
247
0
244
247
0
244
247
0
244
247
0
244
247
0
244
247
0
244
247
0
236
113
163
236
113
163
236
113
163
236
113
163
236
113
163
236
113
163
236
113
163
236
113
163
236
113
163
236
113
163
236
113
163
236
113
163
236
113
163
236
113
163
236
113
163
236
113
163
236
113
163
236
113
163
236
113
163
236
113
163
236
113
163
236
113
163
236
113
163
236
113
163
236
113
163
236
113
163
244
247
0
244
247
0
244
247
0
244
247
0
244
247
0
244
247
0
244
247
0
244
247
0
244
247
0
244
247
0
244
247
0
244
247
0
244
247
0
244
247
0
244
247
0
244
247
0
244
247
0
244
247
0
244
247
0
244
247
0
244
247
0
244
247
0
244
247
0
244
247
0
244
247
0
244
247
0
236
113
163
236
113
163
236
113
163
236
113
163
236
113
163
236
113
163
236
113
163
236
113
163
236
113
163
236
113
163
236
113
163
236
113
163
236
113
163
236
113
163
236
113
163
236
113
163
236
113
163
236
113
163
236
113
163
236
113
163
236
113
163
236
113
163
236
113
163
236
113
163
236
113
163
236
113
163
244
247
0
244
247
0
244
247
0
244
247
0
244
247
0
244
247
0
244
247
0
244
247
0
244
247
0
244
247
0
244
247
0
244
247
0
244
247
0
244
247
0
244
247
0
244
247
0
244
247
0
244
247
0
244
247
0
244
247
0
244
247
0
244
247
0
244
247
0
244
247
0
244
247
0
244
247
0
236
113
163
236
113
163
236
113
163
236
113
163
236
113
163
236
113
163
236
113
163
236
113
163
236
113
163
236
113
163
236
113
163
236
113
163
236
113
163
236
113
163
236
113
163
236
113
163
236
113
163
236
113
163
236
113
163
236
113
163
236
113
163
236
113
163
236
113
163
236
113
163
236
113
163
236
113
163
244
247
0
244
247
0
244
247
0
244
247
0
244
247
0
244
247
0
244
247
0
244
247
0
244
247
0
244
247
0
244
247
0
244
247
0
244
247
0
244
247
0
244
247
0
244
247
0
244
247
0
244
247
0
244
247
0
244
247
0
244
247
0
244
247
0
244
247
0
244
247
0
244
247
0
244
247
0
