P3
# CREATOR: GIMP PNM Filter Version 1.1
6 6
255
69
176
233
69
176
231
69
176
231
69
176
231
69
176
231
69
176
231
69
176
231
69
176
231
69
176
231
69
176
231
69
176
231
69
176
231
69
176
231
69
176
231
69
176
231
69
176
231
69
176
231
69
176
231
69
176
231
69
176
231
69
176
231
69
176
231
69
176
231
69
176
231
69
176
231
69
176
231
69
176
231
69
176
231
69
176
231
69
176
231
69
176
231
69
176
231
69
176
231
69
176
231
69
176
231
69
176
212
